<?xml version="1.0" encoding="UTF-8"?>
<svg id="Capa_2" data-name="Capa 2" xmlns="http://www.w3.org/2000/svg" viewBox="0 0 324.55 324.55">
  <defs>
    <style>
      .cls-1 {
        fill: #fff;
      }

      .cls-1, .cls-2 {
        stroke-width: 0px;
      }

      .cls-2 {
        fill: #4054a1;
      }
    </style>
  </defs>
  <g id="Capa_1-2" data-name="Capa 1">
    <circle class="cls-1" cx="162.27" cy="162.27" r="162.27"/>
    <g id="_16_Avocado" data-name="16 Avocado">
      <path class="cls-2" d="M156.57,304.95c25.7,1.56,50.04-7.29,68.6-24.93,1.72-1.63,1.79-4.35.15-6.07-1.64-1.72-4.35-1.79-6.07-.15-16.81,15.98-38.87,24-62.16,22.58-65.31-3.97-99.98-79.13-61.54-131.46,10.49-14.3,16.03-31.43,16.03-49.54,0-24.74,17.87-46.03,42.55-50.01,3.87-.01,6.59-.42,6.89-.47.23-.04.43-.14.64-.21.21,0,.41-.03.62-.03,0,0,0,0,.01,0,0,0,.01,0,.02,0,28.02,0,50.71,22.69,50.71,50.72,0,8.88,1.34,17.6,3.98,25.92,2.71,8.51,6.71,16.38,11.89,23.4,20.44,27.62,21.24,64.62,3.67,92.75-1.25,2.01-.64,4.66,1.37,5.92,2.01,1.26,4.66.64,5.92-1.37,19.28-30.87,18.66-71.71-4.05-102.4-4.61-6.26-8.18-13.29-10.61-20.9-2.37-7.47-3.58-15.32-3.58-23.32,0-31.33-24.31-57.29-55.78-59.13-2.67-14.89,1.46-27.54,12.58-38.6,1.68-1.67,1.69-4.39.02-6.07-1.67-1.68-4.39-1.69-6.07-.02-6.37,6.34-10.81,13.27-13.35,20.75-.69-.95-1.44-1.87-2.3-2.73-11.02-11.02-30.92-8.02-31.76-7.89-1.84.29-3.28,1.73-3.57,3.57-.13.84-3.13,20.74,7.89,31.76,2.17,2.17,4.7,3.75,7.35,4.96-20.51,9.89-33.62,30.36-33.62,53.41,0,16.27-4.97,31.64-14.37,44.46-42.43,57.76-4.16,140.72,67.94,145.11h0ZM135.34,50.95c-5.74-5.74-6.05-15.87-5.78-21.07,5.2-.27,15.34.04,21.07,5.78,5.62,5.62,6.03,15.43,5.79,20.72-.98.1-1.94.28-2.9.43-5.84-.07-13.59-1.26-18.18-5.85h0ZM220.03,171.25c-11.63-15.75-18.04-35.59-18.04-55.87,0-21.88-17.8-39.69-39.69-39.69s-39.69,17.81-39.69,39.69c0,20.46-6.29,39.84-18.18,56.06-34.3,46.75-1.28,114.08,57.87,114.08,58.96,0,92.36-67.4,57.72-114.28ZM158.28,276.81c-49.92-3.06-76.15-60.45-46.92-100.29,12.98-17.7,19.84-38.84,19.84-61.14,0-17.15,13.95-31.1,31.1-31.1s31.1,13.95,31.1,31.1c0,22.1,7,43.76,19.72,60.97,31.3,42.36-.65,103.73-54.84,100.46h0ZM162.3,180.73c-19.88,0-36.06,16.18-36.06,36.06s16.18,36.06,36.06,36.06,36.06-16.18,36.06-36.06-16.18-36.06-36.06-36.06ZM162.3,244.26c-15.15,0-27.47-12.32-27.47-27.47s12.32-27.47,27.47-27.47,27.47,12.32,27.47,27.47-12.32,27.47-27.47,27.47Z"/>
    </g>
  </g>
</svg>